# xmcd CD database file
# Copyright (C) 1997 Ti Kan
#
# Track frame offsets:
#  150
#  22720
#  40047
#  55545
#  79160
#  97365
#  110100
#  131410
#  145560
#  161702
#  173812
#  191362
#
# Disc length: 2791 seconds
#
# Revision: 1
# Processed by: cddbd v1.4b41PL1 Copyright (c) Steve Scherf et al.
# Submitted via: CDWizzard Release:4.23
#
DISCID=940ae50c
DTITLE=Rawlins Cross - Reel 'n' Roll
DYEAR=1900
DGENRE=
TTITLE0=Reel 'n' Roll
TTITLE1=Don't You Be The One
TTITLE2=It'll Have To Wait
TTITLE3=Long Night
TTITLE4=The Wedding Gift
TTITLE5=Pedestrian Again
TTITLE6=Mystery Tonight
TTITLE7=Dance Hall
TTITLE8=Ghost Of Love
TTITLE9=Turn Of The Wheel
TTITLE10=Colleen
TTITLE11=Macpherson's Lament
EXTD=
EXTT0=
EXTT1=
EXTT2=
EXTT3=
EXTT4=
EXTT5=
EXTT6=
EXTT7=
EXTT8=
EXTT9=
EXTT10=
EXTT11=
PLAYORDER=
